<svg xmlns="http://www.w3.org/2000/svg" xmlns:xlink="http://www.w3.org/1999/xlink" width="500" zoomAndPan="magnify" viewBox="0 0 375 374.999991" height="500" preserveAspectRatio="xMidYMid meet" version="1.0"><defs><g/><clipPath id="d664fbeb35"><path d="M 148.449219 114 L 181 114 L 181 141 L 148.449219 141 Z M 148.449219 114 " clip-rule="nonzero"/></clipPath><clipPath id="d07154ea3e"><path d="M 0.558594 1 L 32.960938 1 L 32.960938 26.878906 L 0.558594 26.878906 Z M 0.558594 1 " clip-rule="nonzero"/></clipPath><clipPath id="064d914779"><rect x="0" width="33" y="0" height="27"/></clipPath><clipPath id="2029718487"><path d="M 181.113281 126 L 200.613281 126 L 200.613281 143 L 181.113281 143 Z M 181.113281 126 " clip-rule="nonzero"/></clipPath></defs><g fill="#322f30" fill-opacity="1"><g transform="translate(11.109981, 217.911622)"><g><path d="M 42.9375 -14.625 C 45.40625 -14.625 47.800781 -14.992188 50.125 -15.734375 C 52.445312 -16.484375 54.148438 -17.203125 55.234375 -17.890625 L 56.875 -19.015625 L 63.765625 -5.25 C 63.535156 -5.070312 63.21875 -4.835938 62.8125 -4.546875 C 62.414062 -4.265625 61.484375 -3.738281 60.015625 -2.96875 C 58.554688 -2.195312 56.992188 -1.523438 55.328125 -0.953125 C 53.660156 -0.378906 51.476562 0.132812 48.78125 0.59375 C 46.09375 1.0625 43.3125 1.296875 40.4375 1.296875 C 33.84375 1.296875 27.59375 -0.320312 21.6875 -3.5625 C 15.78125 -6.8125 11.019531 -11.273438 7.40625 -16.953125 C 3.789062 -22.628906 1.984375 -28.765625 1.984375 -35.359375 C 1.984375 -40.347656 3.039062 -45.140625 5.15625 -49.734375 C 7.28125 -54.328125 10.109375 -58.253906 13.640625 -61.515625 C 17.171875 -64.785156 21.285156 -67.394531 25.984375 -69.34375 C 30.691406 -71.300781 35.507812 -72.28125 40.4375 -72.28125 C 45.03125 -72.28125 49.257812 -71.734375 53.125 -70.640625 C 57 -69.554688 59.738281 -68.46875 61.34375 -67.375 L 63.765625 -65.734375 L 56.875 -51.96875 C 56.476562 -52.3125 55.875 -52.726562 55.0625 -53.21875 C 54.257812 -53.707031 52.65625 -54.351562 50.25 -55.15625 C 47.84375 -55.957031 45.40625 -56.359375 42.9375 -56.359375 C 39.039062 -56.359375 35.539062 -55.726562 32.4375 -54.46875 C 29.34375 -53.207031 26.890625 -51.539062 25.078125 -49.46875 C 23.273438 -47.40625 21.898438 -45.179688 20.953125 -42.796875 C 20.003906 -40.421875 19.53125 -38 19.53125 -35.53125 C 19.53125 -30.144531 21.550781 -25.3125 25.59375 -21.03125 C 29.644531 -16.757812 35.425781 -14.625 42.9375 -14.625 Z M 42.9375 -14.625 "/></g></g></g><g fill="#322f30" fill-opacity="1"><g transform="translate(68.583706, 217.911622)"><g><path d="M 45.78125 -70.984375 L 45.78125 -56.796875 L 21.34375 -56.796875 L 21.34375 -42.671875 L 44.75 -42.671875 L 44.75 -28.484375 L 21.34375 -28.484375 L 21.34375 -14.203125 L 45.78125 -14.203125 L 45.78125 0 L 5.15625 0 L 5.15625 -70.984375 Z M 45.78125 -70.984375 "/></g></g></g><g fill="#322f30" fill-opacity="1"><g transform="translate(111.172685, 217.911622)"><g><path d="M 5.15625 -70.984375 L 30.546875 -70.984375 C 37.367188 -70.984375 42.929688 -69.160156 47.234375 -65.515625 C 51.535156 -61.878906 53.6875 -56.675781 53.6875 -49.90625 C 53.6875 -44.6875 52.378906 -40.3125 49.765625 -36.78125 C 47.160156 -33.257812 43.625 -30.78125 39.15625 -29.34375 L 63.59375 0 L 43.03125 0 L 21.34375 -28.046875 L 21.34375 0 L 5.15625 0 Z M 21.34375 -39.5 L 23.234375 -39.5 C 24.722656 -39.5 25.984375 -39.523438 27.015625 -39.578125 C 28.046875 -39.640625 29.222656 -39.84375 30.546875 -40.1875 C 31.867188 -40.53125 32.929688 -41.015625 33.734375 -41.640625 C 34.535156 -42.273438 35.222656 -43.191406 35.796875 -44.390625 C 36.367188 -45.597656 36.65625 -47.0625 36.65625 -48.78125 C 36.65625 -50.507812 36.367188 -51.972656 35.796875 -53.171875 C 35.222656 -54.378906 34.535156 -55.296875 33.734375 -55.921875 C 32.929688 -56.554688 31.867188 -57.046875 30.546875 -57.390625 C 29.222656 -57.734375 28.046875 -57.929688 27.015625 -57.984375 C 25.984375 -58.046875 24.722656 -58.078125 23.234375 -58.078125 L 21.34375 -58.078125 Z M 21.34375 -39.5 "/></g></g></g><g fill="#322f30" fill-opacity="1"><g transform="translate(165.46296, 217.911622)"><g><path d="M 21.34375 -70.984375 L 21.34375 0 L 5.15625 0 L 5.15625 -70.984375 Z M 21.34375 -70.984375 "/></g></g></g><g fill="#322f30" fill-opacity="1"><g transform="translate(184.649334, 217.911622)"><g><path d="M 42.9375 -14.625 C 45.40625 -14.625 47.800781 -14.992188 50.125 -15.734375 C 52.445312 -16.484375 54.148438 -17.203125 55.234375 -17.890625 L 56.875 -19.015625 L 63.765625 -5.25 C 63.535156 -5.070312 63.21875 -4.835938 62.8125 -4.546875 C 62.414062 -4.265625 61.484375 -3.738281 60.015625 -2.96875 C 58.554688 -2.195312 56.992188 -1.523438 55.328125 -0.953125 C 53.660156 -0.378906 51.476562 0.132812 48.78125 0.59375 C 46.09375 1.0625 43.3125 1.296875 40.4375 1.296875 C 33.84375 1.296875 27.59375 -0.320312 21.6875 -3.5625 C 15.78125 -6.8125 11.019531 -11.273438 7.40625 -16.953125 C 3.789062 -22.628906 1.984375 -28.765625 1.984375 -35.359375 C 1.984375 -40.347656 3.039062 -45.140625 5.15625 -49.734375 C 7.28125 -54.328125 10.109375 -58.253906 13.640625 -61.515625 C 17.171875 -64.785156 21.285156 -67.394531 25.984375 -69.34375 C 30.691406 -71.300781 35.507812 -72.28125 40.4375 -72.28125 C 45.03125 -72.28125 49.257812 -71.734375 53.125 -70.640625 C 57 -69.554688 59.738281 -68.46875 61.34375 -67.375 L 63.765625 -65.734375 L 56.875 -51.96875 C 56.476562 -52.3125 55.875 -52.726562 55.0625 -53.21875 C 54.257812 -53.707031 52.65625 -54.351562 50.25 -55.15625 C 47.84375 -55.957031 45.40625 -56.359375 42.9375 -56.359375 C 39.039062 -56.359375 35.539062 -55.726562 32.4375 -54.46875 C 29.34375 -53.207031 26.890625 -51.539062 25.078125 -49.46875 C 23.273438 -47.40625 21.898438 -45.179688 20.953125 -42.796875 C 20.003906 -40.421875 19.53125 -38 19.53125 -35.53125 C 19.53125 -30.144531 21.550781 -25.3125 25.59375 -21.03125 C 29.644531 -16.757812 35.425781 -14.625 42.9375 -14.625 Z M 42.9375 -14.625 "/></g></g></g><g fill="#322f30" fill-opacity="1"><g transform="translate(242.123059, 217.911622)"><g><path d="M 41.21875 -70.984375 L 69.875 0 L 52.484375 0 L 47.234375 -14.203125 L 20.21875 -14.203125 L 14.96875 0 L -2.40625 0 L 26.25 -70.984375 Z M 41.734375 -28.390625 L 33.8125 -49.046875 L 33.640625 -49.046875 L 25.734375 -28.390625 Z M 41.734375 -28.390625 "/></g></g></g><g fill="#322f30" fill-opacity="1"><g transform="translate(302.264, 217.911622)"><g><path d="M 5.15625 -70.984375 L 30.546875 -70.984375 C 37.367188 -70.984375 42.929688 -69.160156 47.234375 -65.515625 C 51.535156 -61.878906 53.6875 -56.675781 53.6875 -49.90625 C 53.6875 -44.6875 52.378906 -40.3125 49.765625 -36.78125 C 47.160156 -33.257812 43.625 -30.78125 39.15625 -29.34375 L 63.59375 0 L 43.03125 0 L 21.34375 -28.046875 L 21.34375 0 L 5.15625 0 Z M 21.34375 -39.5 L 23.234375 -39.5 C 24.722656 -39.5 25.984375 -39.523438 27.015625 -39.578125 C 28.046875 -39.640625 29.222656 -39.84375 30.546875 -40.1875 C 31.867188 -40.53125 32.929688 -41.015625 33.734375 -41.640625 C 34.535156 -42.273438 35.222656 -43.191406 35.796875 -44.390625 C 36.367188 -45.597656 36.65625 -47.0625 36.65625 -48.78125 C 36.65625 -50.507812 36.367188 -51.972656 35.796875 -53.171875 C 35.222656 -54.378906 34.535156 -55.296875 33.734375 -55.921875 C 32.929688 -56.554688 31.867188 -57.046875 30.546875 -57.390625 C 29.222656 -57.734375 28.046875 -57.929688 27.015625 -57.984375 C 25.984375 -58.046875 24.722656 -58.078125 23.234375 -58.078125 L 21.34375 -58.078125 Z M 21.34375 -39.5 "/></g></g></g><g clip-path="url(#d664fbeb35)"><g transform="matrix(1, 0, 0, 1, 148, 114)"><g clip-path="url(#064d914779)"><g clip-path="url(#d07154ea3e)"><path fill="#44aa00" d="M 7.742188 4.578125 C 23.140625 4.511719 31.40625 11.699219 32.113281 26.582031 C 32.121094 26.765625 32.394531 26.777344 32.421875 26.59375 C 33.109375 21.730469 32.976562 17.300781 31.742188 13.449219 C 27.667969 0.734375 12.132812 -0.933594 1.109375 3.089844 C 0.558594 3.289062 0.449219 4 0.902344 4.363281 C 9.503906 11.238281 8.332031 30.003906 29.261719 21.871094 C 25.992188 11.714844 19.289062 5.417969 7.742188 4.578125 " fill-opacity="1" fill-rule="evenodd"/></g></g></g></g><g clip-path="url(#2029718487)"><path fill="#44aa00" d="M 196.394531 128.6875 C 187.117188 128.644531 182.136719 132.976562 181.710938 141.941406 C 181.707031 142.054688 181.542969 142.0625 181.527344 141.949219 C 181.113281 139.019531 181.191406 136.351562 181.933594 134.03125 C 184.390625 126.371094 193.75 125.367188 200.390625 127.789062 C 200.722656 127.910156 200.789062 128.335938 200.511719 128.558594 C 195.332031 132.699219 196.039062 144.003906 183.429688 139.105469 C 185.398438 132.984375 189.4375 129.191406 196.394531 128.6875 " fill-opacity="1" fill-rule="evenodd"/></g></svg>