<?xml version="1.0" encoding="UTF-8"?>
<!DOCTYPE svg PUBLIC "-//W3C//DTD SVG 1.1//EN" "http://www.w3.org/Graphics/SVG/1.1/DTD/svg11.dtd">
<svg xmlns="http://www.w3.org/2000/svg" version="1.1" width="592px" height="482px" style="shape-rendering:geometricPrecision; text-rendering:geometricPrecision; image-rendering:optimizeQuality; fill-rule:evenodd; clip-rule:evenodd" xmlns:xlink="http://www.w3.org/1999/xlink">
<g><path style="opacity:1" fill="#fdfdfc" d="M -0.5,-0.5 C 196.833,-0.5 394.167,-0.5 591.5,-0.5C 591.5,160.167 591.5,320.833 591.5,481.5C 394.167,481.5 196.833,481.5 -0.5,481.5C -0.5,320.833 -0.5,160.167 -0.5,-0.5 Z"/></g>
<g><path style="opacity:1" fill="#4481ea" d="M 173.5,97.5 C 170.035,92.7481 166.868,87.4147 164,81.5C 163.576,84.0254 162.41,86.0254 160.5,87.5C 168.625,69.9328 164.292,56.4328 147.5,47C 141.053,44.8469 134.719,45.0135 128.5,47.5C 128.881,46.0689 129.881,45.2355 131.5,45C 129.888,44.2797 128.388,44.4464 127,45.5C 125.69,43.7074 125.19,41.8741 125.5,40C 126,39.5 126.5,39 127,38.5C 127.216,40.3839 127.883,42.0506 129,43.5C 131.276,39.8845 130.61,36.8845 127,34.5C 123.508,34.9023 120.008,35.2356 116.5,35.5C 139.121,24.6915 158.621,29.0248 175,48.5C 175.561,51.29 176.894,53.6234 179,55.5C 183.824,70.5262 181.99,84.5262 173.5,97.5 Z"/></g>
<g><path style="opacity:1" fill="#4676ec" d="M 128.5,47.5 C 122.167,50.5 117.5,55.1667 114.5,61.5C 113.203,63.3713 112.203,65.3713 111.5,67.5C 110.679,70.6414 110.179,73.9748 110,77.5C 109.004,75.256 107.504,73.4227 105.5,72C 106.5,71.6667 107.5,71.3333 108.5,71C 107.382,69.9264 106.382,68.7598 105.5,67.5C 105.167,68.1667 104.833,68.8333 104.5,69.5C 103.158,67.9951 101.492,67.3285 99.5,67.5C 99.067,64.8344 98.567,62.1677 98,59.5C 96.7703,66.4453 96.2703,73.4453 96.5,80.5C 93.0893,61.0782 99.756,46.0782 116.5,35.5C 120.008,35.2356 123.508,34.9023 127,34.5C 130.61,36.8845 131.276,39.8845 129,43.5C 127.883,42.0506 127.216,40.3839 127,38.5C 126.5,39 126,39.5 125.5,40C 125.19,41.8741 125.69,43.7074 127,45.5C 128.388,44.4464 129.888,44.2797 131.5,45C 129.881,45.2355 128.881,46.0689 128.5,47.5 Z"/></g>
<g><path style="opacity:1" fill="#fbfcfc" d="M 160.5,87.5 C 157.431,91.5722 153.765,94.9056 149.5,97.5C 134.718,102.797 123.385,98.7974 115.5,85.5C 113.219,77.6131 112.886,69.6131 114.5,61.5C 117.5,55.1667 122.167,50.5 128.5,47.5C 134.719,45.0135 141.053,44.8469 147.5,47C 164.292,56.4328 168.625,69.9328 160.5,87.5 Z"/></g>
<g><path style="opacity:1" fill="#fbfdfc" d="M 437.5,54.5 C 443.362,63.3629 444.862,73.0296 442,83.5C 438.633,89.7007 433.8,94.3674 427.5,97.5C 422.331,99.2652 416.998,99.9318 411.5,99.5C 398.76,95.0824 392.094,86.0824 391.5,72.5C 392.037,61.5912 397.037,53.4245 406.5,48C 418.368,43.1191 428.701,45.2857 437.5,54.5 Z"/></g>
<g><path style="opacity:1" fill="#63cbdf" d="M 448.5,42.5 C 453.55,47.5692 457.383,53.5692 460,60.5C 463.483,76.7168 459.65,90.7168 448.5,102.5C 434.925,114.336 419.258,117.836 401.5,113C 399.881,112.764 398.881,111.931 398.5,110.5C 399.239,110.631 399.906,110.464 400.5,110C 400.146,108.374 400.146,106.541 400.5,104.5C 403.579,104.26 406.579,104.593 409.5,105.5C 410.919,102.582 413.252,101.082 416.5,101C 414.618,100.802 412.952,100.302 411.5,99.5C 416.998,99.9318 422.331,99.2652 427.5,97.5C 433.8,94.3674 438.633,89.7007 442,83.5C 444.862,73.0296 443.362,63.3629 437.5,54.5C 438.158,53.6016 438.824,52.6016 439.5,51.5C 440.167,52.1667 440.833,52.8333 441.5,53.5C 444.266,50.5027 445.599,47.1693 445.5,43.5C 447.738,46.4327 448.738,46.0993 448.5,42.5 Z"/></g>
<g><path style="opacity:1" fill="#50a9e3" d="M 297.5,58.5 C 297.918,59.2216 298.584,59.7216 299.5,60C 297.5,60.3333 295.5,60.6667 293.5,61C 294.167,61.3333 294.833,61.6667 295.5,62C 294.973,64.4754 294.973,66.8088 295.5,69C 296.672,69.4186 297.672,70.0853 298.5,71C 296.58,72.1223 294.58,72.9556 292.5,73.5C 290.5,73.5 288.5,73.5 286.5,73.5C 280.69,72.5104 274.69,72.1771 268.5,72.5C 268.804,71.8501 269.137,71.1835 269.5,70.5C 267.994,69.2528 266.494,69.2528 265,70.5C 264.667,68.9532 265.167,67.6199 266.5,66.5C 265.333,64.8333 264.167,63.1667 263,61.5C 262.667,61.8333 262.333,62.1667 262,62.5C 260.818,60.6431 259.151,59.6431 257,59.5C 253.542,60.2865 250.042,60.6198 246.5,60.5C 263.221,56.0779 280.221,55.4112 297.5,58.5 Z"/></g>
<g><path style="opacity:1" fill="#4d9fe6" d="M 268.5,72.5 C 264.534,73.2837 260.534,74.117 256.5,75C 255.944,75.3826 255.611,75.8826 255.5,76.5C 253.5,76.8333 251.5,77.1667 249.5,77.5C 249.489,75.9826 248.823,74.8159 247.5,74C 249.167,73.6667 250.833,73.3333 252.5,73C 250.998,70.7528 248.998,69.0862 246.5,68C 248.014,66.561 248.347,65.061 247.5,63.5C 250.131,61.9954 249.797,61.3287 246.5,61.5C 246.5,61.1667 246.5,60.8333 246.5,60.5C 250.042,60.6198 253.542,60.2865 257,59.5C 259.151,59.6431 260.818,60.6431 262,62.5C 262.333,62.1667 262.667,61.8333 263,61.5C 264.167,63.1667 265.333,64.8333 266.5,66.5C 265.167,67.6199 264.667,68.9532 265,70.5C 266.494,69.2528 267.994,69.2528 269.5,70.5C 269.137,71.1835 268.804,71.8501 268.5,72.5 Z"/></g>
<g><path style="opacity:1" fill="#5bb8e2" d="M 297.5,58.5 C 305.487,59.6019 313.321,61.6019 321,64.5C 328.628,68.6311 336.128,72.9644 343.5,77.5C 343.559,79.7645 342.726,80.0978 341,78.5C 337.618,79.4503 337.118,80.9503 339.5,83C 337.833,83.3333 336.167,83.6667 334.5,84C 339.931,85.6018 340.265,86.9352 335.5,88C 338.204,92.0607 341.871,96.0607 346.5,100C 345.944,100.383 345.611,100.883 345.5,101.5C 330.391,87.1143 312.724,77.781 292.5,73.5C 294.58,72.9556 296.58,72.1223 298.5,71C 297.672,70.0853 296.672,69.4186 295.5,69C 294.973,66.8088 294.973,64.4754 295.5,62C 294.833,61.6667 294.167,61.3333 293.5,61C 295.5,60.6667 297.5,60.3333 299.5,60C 298.584,59.7216 297.918,59.2216 297.5,58.5 Z"/></g>
<g><path style="opacity:1" fill="#4c96e7" d="M 246.5,61.5 C 249.797,61.3287 250.131,61.9954 247.5,63.5C 248.347,65.061 248.014,66.561 246.5,68C 248.998,69.0862 250.998,70.7528 252.5,73C 250.833,73.3333 249.167,73.6667 247.5,74C 248.823,74.8159 249.489,75.9826 249.5,77.5C 244.168,78.6658 239.168,80.6658 234.5,83.5C 233.687,82.3473 232.687,82.3473 231.5,83.5C 230.355,82.2243 230.355,80.891 231.5,79.5C 229.878,77.5614 228.044,77.228 226,78.5C 225.19,74.4706 223.023,72.8039 219.5,73.5C 224.49,69.8782 229.823,66.7115 235.5,64C 239.207,63.2627 242.873,62.4293 246.5,61.5 Z"/></g>
<g><path style="opacity:1" fill="#becaf7" d="M 114.5,61.5 C 112.886,69.6131 113.219,77.6131 115.5,85.5C 113.489,83.333 112.322,80.6663 112,77.5C 111.502,74.1832 111.335,70.8499 111.5,67.5C 112.203,65.3713 113.203,63.3713 114.5,61.5 Z"/></g>
<g><path style="opacity:1" fill="#5dc1e0" d="M 448.5,42.5 C 448.738,46.0993 447.738,46.4327 445.5,43.5C 445.599,47.1693 444.266,50.5027 441.5,53.5C 440.833,52.8333 440.167,52.1667 439.5,51.5C 438.824,52.6016 438.158,53.6016 437.5,54.5C 428.701,45.2857 418.368,43.1191 406.5,48C 397.037,53.4245 392.037,61.5912 391.5,72.5C 392.094,86.0824 398.76,95.0824 411.5,99.5C 412.952,100.302 414.618,100.802 416.5,101C 413.252,101.082 410.919,102.582 409.5,105.5C 406.579,104.593 403.579,104.26 400.5,104.5C 400.146,106.541 400.146,108.374 400.5,110C 399.906,110.464 399.239,110.631 398.5,110.5C 386.963,105.108 379.463,96.1081 376,83.5C 371.949,61.4405 379.449,44.6072 398.5,33C 411.181,28.3825 423.848,28.3825 436.5,33C 441.116,35.464 445.116,38.6306 448.5,42.5 Z"/></g>
<g><path style="opacity:1" fill="#bcd9f3" d="M 268.5,72.5 C 274.69,72.1771 280.69,72.5104 286.5,73.5C 276.004,73.0577 265.671,74.0577 255.5,76.5C 255.611,75.8826 255.944,75.3826 256.5,75C 260.534,74.117 264.534,73.2837 268.5,72.5 Z"/></g>
<g><path style="opacity:1" fill="#fcfdfc" d="M 286.5,73.5 C 288.5,73.5 290.5,73.5 292.5,73.5C 312.724,77.781 330.391,87.1143 345.5,101.5C 357.496,113.487 365.329,127.82 369,144.5C 371.559,147.349 374.726,148.183 378.5,147C 382.48,143.845 386.814,141.345 391.5,139.5C 402.554,135.995 413.887,134.828 425.5,136C 430.08,137.791 434.746,139.291 439.5,140.5C 442.194,142.514 445.194,144.014 448.5,145C 450.208,147.043 452.208,148.71 454.5,150C 458.042,153.705 461.376,157.538 464.5,161.5C 466.446,166.672 467.779,172.005 468.5,177.5C 468.5,179.167 468.5,180.833 468.5,182.5C 462.542,182.075 456.876,180.575 451.5,178C 447.5,177.333 443.5,177.333 439.5,178C 435.352,181.314 431.352,184.814 427.5,188.5C 425.873,186.235 424.539,183.901 423.5,181.5C 422.698,173.094 419.031,166.261 412.5,161C 405.593,159.079 401.259,161.579 399.5,168.5C 398.351,168.791 397.684,169.624 397.5,171C 395.078,179.853 392.578,188.687 390,197.5C 385.822,189.635 382.822,181.302 381,172.5C 379.36,170.421 378.194,168.088 377.5,165.5C 376.643,164.575 375.643,163.908 374.5,163.5C 370.094,160.316 366.594,161.316 364,166.5C 362.846,174.268 361.18,181.935 359,189.5C 354.223,198.054 349.723,206.721 345.5,215.5C 343.311,217.876 342.311,220.709 342.5,224C 343.219,228.939 344.386,233.772 346,238.5C 346.801,241.367 346.634,244.034 345.5,246.5C 337.397,243.974 329.397,241.14 321.5,238C 315.114,236.954 309.114,237.787 303.5,240.5C 291.061,244.236 278.394,245.236 265.5,243.5C 261.394,243.26 257.394,242.593 253.5,241.5C 251.485,240.076 249.152,239.41 246.5,239.5C 244.95,238.559 243.284,237.893 241.5,237.5C 239.967,235.755 237.967,234.755 235.5,234.5C 226.109,230.292 217.943,224.292 211,216.5C 204.991,208.476 199.491,200.143 194.5,191.5C 193.736,187.207 192.403,183.207 190.5,179.5C 190.376,174.951 189.709,170.618 188.5,166.5C 186.983,161.414 186.15,156.081 186,150.5C 183.427,144.545 179.261,143.045 173.5,146C 171.308,149.324 169.641,152.824 168.5,156.5C 167.076,158.515 166.41,160.848 166.5,163.5C 164.088,169.19 162.421,175.19 161.5,181.5C 161.007,183.806 160.674,186.139 160.5,188.5C 159.911,191.894 158.578,194.894 156.5,197.5C 154.331,192.935 152.664,188.269 151.5,183.5C 151.663,181.143 151.497,178.81 151,176.5C 150.764,174.881 149.931,173.881 148.5,173.5C 147.528,165.695 143.194,162.195 135.5,163C 132.72,165.854 130.386,169.021 128.5,172.5C 127.628,174.45 126.961,176.45 126.5,178.5C 125.189,182.455 123.356,186.121 121,189.5C 118.117,184.95 114.284,181.45 109.5,179C 106.833,178.333 104.167,178.333 101.5,179C 97.1768,180.276 92.8435,181.442 88.5,182.5C 87.8565,176.16 88.8565,170.16 91.5,164.5C 92.9063,164.027 93.573,163.027 93.5,161.5C 93.5569,160.391 93.8902,159.391 94.5,158.5C 100.816,149.519 109.149,143.185 119.5,139.5C 121.042,138.699 122.708,138.366 124.5,138.5C 136.254,137.067 147.921,136.067 159.5,135.5C 163.689,135.572 167.689,134.739 171.5,133C 176.872,131.159 181.872,128.659 186.5,125.5C 193.767,121.235 199.767,115.568 204.5,108.5C 208.805,103.859 213.139,99.1927 217.5,94.5C 222.968,90.5947 228.635,86.9281 234.5,83.5C 239.168,80.6658 244.168,78.6658 249.5,77.5C 251.5,77.1667 253.5,76.8333 255.5,76.5C 265.671,74.0577 276.004,73.0577 286.5,73.5 Z"/></g>
<g><path style="opacity:1" fill="#466dee" d="M 111.5,67.5 C 111.335,70.8499 111.502,74.1832 112,77.5C 112.322,80.6663 113.489,83.333 115.5,85.5C 123.385,98.7974 134.718,102.797 149.5,97.5C 151.854,96.3157 154.187,96.4824 156.5,98C 156.167,98.3333 155.833,98.6667 155.5,99C 156.191,100.067 156.691,101.234 157,102.5C 157.893,101.289 158.726,101.289 159.5,102.5C 160.711,103.72 160.711,104.887 159.5,106C 160.381,106.708 161.047,107.542 161.5,108.5C 141.431,119.525 123.097,117.192 106.5,101.5C 101.288,95.4095 97.955,88.4095 96.5,80.5C 96.2703,73.4453 96.7703,66.4453 98,59.5C 98.567,62.1677 99.067,64.8344 99.5,67.5C 101.492,67.3285 103.158,67.9951 104.5,69.5C 104.833,68.8333 105.167,68.1667 105.5,67.5C 106.382,68.7598 107.382,69.9264 108.5,71C 107.5,71.3333 106.5,71.6667 105.5,72C 107.504,73.4227 109.004,75.256 110,77.5C 110.179,73.9748 110.679,70.6414 111.5,67.5 Z"/></g>
<g><path style="opacity:1" fill="#488de9" d="M 234.5,83.5 C 228.635,86.9281 222.968,90.5947 217.5,94.5C 215.55,93.379 214.05,91.379 213,88.5C 212.586,88.9574 212.086,89.2907 211.5,89.5C 210.692,87.5767 210.192,85.5767 210,83.5C 209.329,82.7476 208.496,82.4142 207.5,82.5C 211.104,79.0251 215.104,76.0251 219.5,73.5C 223.023,72.8039 225.19,74.4706 226,78.5C 228.044,77.228 229.878,77.5614 231.5,79.5C 230.355,80.891 230.355,82.2243 231.5,83.5C 232.687,82.3473 233.687,82.3473 234.5,83.5 Z"/></g>
<g><path style="opacity:1" fill="#457aec" d="M 173.5,97.5 C 170.152,101.847 166.152,105.514 161.5,108.5C 161.047,107.542 160.381,106.708 159.5,106C 160.711,104.887 160.711,103.72 159.5,102.5C 158.726,101.289 157.893,101.289 157,102.5C 156.691,101.234 156.191,100.067 155.5,99C 155.833,98.6667 156.167,98.3333 156.5,98C 154.187,96.4824 151.854,96.3157 149.5,97.5C 153.765,94.9056 157.431,91.5722 160.5,87.5C 162.41,86.0254 163.576,84.0254 164,81.5C 166.868,87.4147 170.035,92.7481 173.5,97.5 Z"/></g>
<g><path style="opacity:1" fill="#4586ea" d="M 207.5,82.5 C 208.496,82.4142 209.329,82.7476 210,83.5C 210.192,85.5767 210.692,87.5767 211.5,89.5C 212.086,89.2907 212.586,88.9574 213,88.5C 214.05,91.379 215.55,93.379 217.5,94.5C 213.139,99.1927 208.805,103.859 204.5,108.5C 203.791,107.596 202.791,107.263 201.5,107.5C 201.365,103.496 200.865,99.4959 200,95.5C 196.226,98.197 195.726,97.697 198.5,94C 198.43,93.2352 198.097,92.7352 197.5,92.5C 200.5,88.8333 203.833,85.5 207.5,82.5 Z"/></g>
<g><path style="opacity:1" fill="#477feb" d="M 197.5,92.5 C 198.097,92.7352 198.43,93.2352 198.5,94C 195.726,97.697 196.226,98.197 200,95.5C 200.865,99.4959 201.365,103.496 201.5,107.5C 202.791,107.263 203.791,107.596 204.5,108.5C 199.767,115.568 193.767,121.235 186.5,125.5C 184.284,124.97 182.118,125.637 180,127.5C 179.5,127 179,126.5 178.5,126C 179.38,124.644 179.714,123.144 179.5,121.5C 175.922,120.708 172.588,119.375 169.5,117.5C 180.697,111.306 190.03,102.973 197.5,92.5 Z"/></g>
<g><path style="opacity:1" fill="#5ec2e0" d="M 343.5,77.5 C 360.376,90.5353 372.876,106.869 381,126.5C 384.267,125.227 387.434,123.894 390.5,122.5C 393.807,121.949 397.14,121.616 400.5,121.5C 399.842,125.848 397.508,127.848 393.5,127.5C 392.911,129.373 393.578,131.04 395.5,132.5C 394.408,135.024 393.074,137.357 391.5,139.5C 386.814,141.345 382.48,143.845 378.5,147C 374.726,148.183 371.559,147.349 369,144.5C 365.329,127.82 357.496,113.487 345.5,101.5C 345.611,100.883 345.944,100.383 346.5,100C 341.871,96.0607 338.204,92.0607 335.5,88C 340.265,86.9352 339.931,85.6018 334.5,84C 336.167,83.6667 337.833,83.3333 339.5,83C 337.118,80.9503 337.618,79.4503 341,78.5C 342.726,80.0978 343.559,79.7645 343.5,77.5 Z"/></g>
<g><path style="opacity:1" fill="#4773ee" d="M 169.5,117.5 C 172.588,119.375 175.922,120.708 179.5,121.5C 179.714,123.144 179.38,124.644 178.5,126C 179,126.5 179.5,127 180,127.5C 182.118,125.637 184.284,124.97 186.5,125.5C 181.872,128.659 176.872,131.159 171.5,133C 167.689,134.739 163.689,135.572 159.5,135.5C 158.833,135.5 158.167,135.5 157.5,135.5C 157.5,134.833 157.167,134.5 156.5,134.5C 154.94,132.871 155.273,131.704 157.5,131C 155.985,129.274 154.318,127.774 152.5,126.5C 153.811,125.742 154.311,124.742 154,123.5C 152.422,123.588 150.922,123.588 149.5,123.5C 151.766,122.686 154.1,122.186 156.5,122C 147.84,121.5 139.173,121.334 130.5,121.5C 130.5,121.167 130.5,120.833 130.5,120.5C 143.651,121.122 156.651,120.122 169.5,117.5 Z"/></g>
<g><path style="opacity:1" fill="#8a98f3" d="M 130.5,120.5 C 130.5,120.833 130.5,121.167 130.5,121.5C 128.585,121.216 126.919,121.549 125.5,122.5C 122.833,122.5 120.167,122.5 117.5,122.5C 121.545,120.823 125.878,120.156 130.5,120.5 Z"/></g>
<g><path style="opacity:1" fill="#466bef" d="M 125.5,122.5 C 126.919,121.549 128.585,121.216 130.5,121.5C 139.173,121.334 147.84,121.5 156.5,122C 154.1,122.186 151.766,122.686 149.5,123.5C 150.922,123.588 152.422,123.588 154,123.5C 154.311,124.742 153.811,125.742 152.5,126.5C 154.318,127.774 155.985,129.274 157.5,131C 155.273,131.704 154.94,132.871 156.5,134.5C 149.159,134.666 141.826,134.5 134.5,134C 137.167,133.333 137.167,132.667 134.5,132C 134.833,131.667 135.167,131.333 135.5,131C 134.552,130.517 133.552,130.351 132.5,130.5C 132.5,129.5 132.5,128.5 132.5,127.5C 129.916,127.431 127.916,126.265 126.5,124C 127.712,122.893 127.379,122.393 125.5,122.5 Z"/></g>
<g><path style="opacity:1" fill="#68cfdf" d="M 454.5,130.5 C 451.91,130.082 449.577,129.082 447.5,127.5C 446.5,128.833 445.5,128.833 444.5,127.5C 442.566,127.901 441.066,128.901 440,130.5C 439.667,129.5 439.333,128.5 439,127.5C 436.74,129.682 435.24,132.349 434.5,135.5C 436.215,137.215 437.881,138.881 439.5,140.5C 434.746,139.291 430.08,137.791 425.5,136C 413.887,134.828 402.554,135.995 391.5,139.5C 393.074,137.357 394.408,135.024 395.5,132.5C 393.578,131.04 392.911,129.373 393.5,127.5C 397.508,127.848 399.842,125.848 400.5,121.5C 397.14,121.616 393.807,121.949 390.5,122.5C 394.54,120.883 398.873,120.05 403.5,120C 422.098,116.969 439.098,120.469 454.5,130.5 Z"/></g>
<g><path style="opacity:1" fill="#4c64ef" d="M 117.5,122.5 C 120.167,122.5 122.833,122.5 125.5,122.5C 127.379,122.393 127.712,122.893 126.5,124C 127.916,126.265 129.916,127.431 132.5,127.5C 132.5,128.5 132.5,129.5 132.5,130.5C 133.552,130.351 134.552,130.517 135.5,131C 135.167,131.333 134.833,131.667 134.5,132C 137.167,132.667 137.167,133.333 134.5,134C 141.826,134.5 149.159,134.666 156.5,134.5C 157.167,134.5 157.5,134.833 157.5,135.5C 148.494,135.334 139.494,135.5 130.5,136C 128.026,136.037 126.026,136.87 124.5,138.5C 122.708,138.366 121.042,138.699 119.5,139.5C 119.769,137.571 119.269,135.905 118,134.5C 117.586,134.957 117.086,135.291 116.5,135.5C 114.21,132.355 111.21,130.188 107.5,129C 108.167,128.667 108.833,128.333 109.5,128C 108.207,127.51 106.873,127.343 105.5,127.5C 109.5,125.833 113.5,124.167 117.5,122.5 Z"/></g>
<g><path style="opacity:1" fill="#508eeb" d="M 259.5,114.5 C 259.423,115.75 258.756,116.583 257.5,117C 259.126,119.628 261.126,121.961 263.5,124C 262.833,124.333 262.167,124.667 261.5,125C 262.406,126.699 262.739,128.533 262.5,130.5C 259.402,130.413 259.068,130.913 261.5,132C 260.584,132.278 259.918,132.778 259.5,133.5C 259.17,151.341 259.503,169.008 260.5,186.5C 260.44,187.043 260.107,187.376 259.5,187.5C 258.667,172.511 258.167,157.511 258,142.5C 257.501,146.821 257.334,151.154 257.5,155.5C 253.873,156.539 250.206,156.539 246.5,155.5C 246.5,152.5 246.5,149.5 246.5,146.5C 247.978,146.762 249.311,146.429 250.5,145.5C 249.224,144.355 247.891,144.355 246.5,145.5C 245.193,135.803 245.193,126.136 246.5,116.5C 246.154,115.304 245.654,115.304 245,116.5C 244.667,118.5 244.333,120.5 244,122.5C 243.5,147.831 243.333,173.164 243.5,198.5C 242.337,172.337 242.17,146.003 243,119.5C 243.066,116.724 244.232,114.558 246.5,113C 251.061,112.055 255.394,112.555 259.5,114.5 Z"/></g>
<g><path style="opacity:1" fill="#5c5ef2" d="M 105.5,127.5 C 106.873,127.343 108.207,127.51 109.5,128C 108.833,128.333 108.167,128.667 107.5,129C 111.21,130.188 114.21,132.355 116.5,135.5C 117.086,135.291 117.586,134.957 118,134.5C 119.269,135.905 119.769,137.571 119.5,139.5C 109.149,143.185 100.816,149.519 94.5,158.5C 92.8279,156.251 91.9945,153.917 92,151.5C 90.4895,153.733 89.6562,155.899 89.5,158C 88.365,158.749 87.365,158.583 86.5,157.5C 85.6495,154.388 84.4828,154.054 83,156.5C 81.3688,154.519 81.5354,152.519 83.5,150.5C 83.3764,149.893 83.0431,149.56 82.5,149.5C 88.2464,140.085 95.9131,132.752 105.5,127.5 Z"/></g>
<g><path style="opacity:1" fill="#aab6f7" d="M 157.5,135.5 C 158.167,135.5 158.833,135.5 159.5,135.5C 147.921,136.067 136.254,137.067 124.5,138.5C 126.026,136.87 128.026,136.037 130.5,136C 139.494,135.5 148.494,135.334 157.5,135.5 Z"/></g>
<g><path style="opacity:1" fill="#c3d9f7" d="M 259.5,133.5 C 260.492,133.328 261.158,133.662 261.5,134.5C 260.834,142.66 260.5,150.993 260.5,159.5C 260.502,168.194 261.169,176.528 262.5,184.5C 262.5,184.833 262.5,185.167 262.5,185.5C 261.833,185.833 261.167,186.167 260.5,186.5C 259.503,169.008 259.17,151.341 259.5,133.5 Z"/></g>
<g><path style="opacity:1" fill="#69d8dd" d="M 454.5,130.5 C 460.982,133.409 466.315,137.742 470.5,143.5C 469.504,143.414 468.671,143.748 468,144.5C 467.333,143.833 466.667,143.167 466,142.5C 464.829,143.893 463.329,144.727 461.5,145C 462.748,148.118 462.414,151.118 460.5,154C 462.839,155.989 464.173,158.489 464.5,161.5C 461.376,157.538 458.042,153.705 454.5,150C 452.208,148.71 450.208,147.043 448.5,145C 445.194,144.014 442.194,142.514 439.5,140.5C 437.881,138.881 436.215,137.215 434.5,135.5C 435.24,132.349 436.74,129.682 439,127.5C 439.333,128.5 439.667,129.5 440,130.5C 441.066,128.901 442.566,127.901 444.5,127.5C 445.5,128.833 446.5,128.833 447.5,127.5C 449.577,129.082 451.91,130.082 454.5,130.5 Z"/></g>
<g><path style="opacity:1" fill="#fbfcfc" d="M 261.5,134.5 C 274.996,143.14 288.663,151.64 302.5,160C 295.96,163.097 289.96,166.93 284.5,171.5C 276.865,175.318 269.531,179.651 262.5,184.5C 261.169,176.528 260.502,168.194 260.5,159.5C 260.5,150.993 260.834,142.66 261.5,134.5 Z"/></g>
<g><path style="opacity:1" fill="#6bdddb" d="M 470.5,143.5 C 477.26,151.687 481.927,161.02 484.5,171.5C 485.666,181.817 485.832,192.151 485,202.5C 482.337,206.725 478.504,208.225 473.5,207C 471.667,206.5 470.5,205.333 470,203.5C 468.851,200.607 468.351,197.607 468.5,194.5C 462.898,194.764 457.565,193.764 452.5,191.5C 449.759,190.288 447.092,188.788 444.5,187C 447.057,184.133 446.724,182.133 443.5,181C 445.926,181.048 448.259,180.881 450.5,180.5C 456.743,182.04 463.076,183.04 469.5,183.5C 469.795,181.265 469.461,179.265 468.5,177.5C 467.779,172.005 466.446,166.672 464.5,161.5C 464.173,158.489 462.839,155.989 460.5,154C 462.414,151.118 462.748,148.118 461.5,145C 463.329,144.727 464.829,143.893 466,142.5C 466.667,143.167 467.333,143.833 468,144.5C 468.671,143.748 469.504,143.414 470.5,143.5 Z"/></g>
<g><path style="opacity:1" fill="#4c6def" d="M 188.5,166.5 C 188.156,171.122 188.823,175.455 190.5,179.5C 192.403,183.207 193.736,187.207 194.5,191.5C 199.491,200.143 204.991,208.476 211,216.5C 217.943,224.292 226.109,230.292 235.5,234.5C 237.033,236.245 239.033,237.245 241.5,237.5C 239.73,238.764 238.063,240.264 236.5,242C 239.158,244.386 238.825,246.386 235.5,248C 236.833,248.667 236.833,249.333 235.5,250C 237.167,251 238.833,252 240.5,253C 239.552,253.483 238.552,253.649 237.5,253.5C 236.391,253.443 235.391,253.11 234.5,252.5C 232.967,250.755 230.967,249.755 228.5,249.5C 201.254,234.401 183.421,211.735 175,181.5C 172.726,188.203 170.56,194.869 168.5,201.5C 168.579,200.07 168.246,198.736 167.5,197.5C 165.345,196.59 163.345,195.423 161.5,194C 162.907,190.629 163.407,187.129 163,183.5C 162.626,185.491 161.793,187.158 160.5,188.5C 160.674,186.139 161.007,183.806 161.5,181.5C 163.912,175.81 165.579,169.81 166.5,163.5C 167.924,161.485 168.59,159.152 168.5,156.5C 169.641,152.824 171.308,149.324 173.5,146C 179.261,143.045 183.427,144.545 186,150.5C 186.15,156.081 186.983,161.414 188.5,166.5 Z"/></g>
<g><path style="opacity:1" fill="#4ea0e5" d="M 318.5,151.5 C 320.371,151.859 321.871,152.859 323,154.5C 324.193,159.152 323.36,163.319 320.5,167C 318.138,168.511 315.805,170.011 313.5,171.5C 311.294,169.539 308.628,168.206 305.5,167.5C 305.369,164.671 306.369,163.338 308.5,163.5C 307.167,162.5 307.167,161.5 308.5,160.5C 307.311,159.571 305.978,159.238 304.5,159.5C 304.67,158.178 304.337,157.011 303.5,156C 305.094,153.197 306.761,150.364 308.5,147.5C 309.506,147.938 309.506,148.604 308.5,149.5C 311.714,150.044 314.714,151.044 317.5,152.5C 318.107,152.376 318.44,152.043 318.5,151.5 Z"/></g>
<g><path style="opacity:1" fill="#4d98e6" d="M 259.5,114.5 C 279.034,127.098 298.701,139.431 318.5,151.5C 318.44,152.043 318.107,152.376 317.5,152.5C 314.714,151.044 311.714,150.044 308.5,149.5C 309.506,148.604 309.506,147.938 308.5,147.5C 306.761,150.364 305.094,153.197 303.5,156C 304.337,157.011 304.67,158.178 304.5,159.5C 305.978,159.238 307.311,159.571 308.5,160.5C 307.167,161.5 307.167,162.5 308.5,163.5C 306.369,163.338 305.369,164.671 305.5,167.5C 308.628,168.206 311.294,169.539 313.5,171.5C 305.899,175.772 298.566,180.439 291.5,185.5C 291.631,184.624 291.298,183.957 290.5,183.5C 289.186,184.313 288.019,185.313 287,186.5C 286.333,185.833 285.667,185.167 285,184.5C 285.943,182.481 286.443,180.481 286.5,178.5C 285.292,175.934 284.625,173.601 284.5,171.5C 289.96,166.93 295.96,163.097 302.5,160C 288.663,151.64 274.996,143.14 261.5,134.5C 261.158,133.662 260.492,133.328 259.5,133.5C 259.918,132.778 260.584,132.278 261.5,132C 259.068,130.913 259.402,130.413 262.5,130.5C 262.739,128.533 262.406,126.699 261.5,125C 262.167,124.667 262.833,124.333 263.5,124C 261.126,121.961 259.126,119.628 257.5,117C 258.756,116.583 259.423,115.75 259.5,114.5 Z"/></g>
<g><path style="opacity:1" fill="#98a6f6" d="M 168.5,156.5 C 168.59,159.152 167.924,161.485 166.5,163.5C 166.41,160.848 167.076,158.515 168.5,156.5 Z"/></g>
<g><path style="opacity:1" fill="#65cbde" d="M 423.5,181.5 C 423.649,182.552 423.483,183.552 423,184.5C 421.701,181.853 420.368,179.186 419,176.5C 418.626,177.416 418.126,178.25 417.5,179C 420.051,180.516 419.718,181.349 416.5,181.5C 415.842,184.973 415.508,188.306 415.5,191.5C 412.658,186.634 410.991,181.301 410.5,175.5C 409.5,175.5 408.5,175.5 407.5,175.5C 405.945,185.72 403.445,195.72 400,205.5C 399.292,206.381 398.458,207.047 397.5,207.5C 397.649,206.448 397.483,205.448 397,204.5C 396,204.167 395,203.833 394,203.5C 393.383,202.551 393.549,201.718 394.5,201C 393.426,200.261 392.759,199.261 392.5,198C 394.89,191.721 396.39,185.221 397,178.5C 399.164,175.553 399.998,172.219 399.5,168.5C 401.259,161.579 405.593,159.079 412.5,161C 419.031,166.261 422.698,173.094 423.5,181.5 Z"/></g>
<g><path style="opacity:1" fill="#b2acf9" d="M 93.5,161.5 C 93.573,163.027 92.9063,164.027 91.5,164.5C 91.427,162.973 92.0937,161.973 93.5,161.5 Z"/></g>
<g><path style="opacity:1" fill="#a698f8" d="M 76.5,159.5 C 76.7406,161.898 76.0739,163.898 74.5,165.5C 74.2594,163.102 74.9261,161.102 76.5,159.5 Z"/></g>
<g><path style="opacity:1" fill="#4580ea" d="M 260.5,186.5 C 261.167,186.167 261.833,185.833 262.5,185.5C 262.938,185.435 263.272,185.601 263.5,186C 261.545,188.168 260.879,190.502 261.5,193C 263.776,194.874 263.443,196.541 260.5,198C 261.253,199.487 262.086,199.654 263,198.5C 262.645,199.959 262.811,201.293 263.5,202.5C 257.472,208.533 251.305,208.867 245,203.5C 243.991,201.975 243.491,200.308 243.5,198.5C 243.333,173.164 243.5,147.831 244,122.5C 244.333,120.5 244.667,118.5 245,116.5C 245.654,115.304 246.154,115.304 246.5,116.5C 245.193,126.136 245.193,135.803 246.5,145.5C 247.891,144.355 249.224,144.355 250.5,145.5C 249.311,146.429 247.978,146.762 246.5,146.5C 246.5,149.5 246.5,152.5 246.5,155.5C 250.206,156.539 253.873,156.539 257.5,155.5C 257.334,151.154 257.501,146.821 258,142.5C 258.167,157.511 258.667,172.511 259.5,187.5C 260.107,187.376 260.44,187.043 260.5,186.5 Z"/></g>
<g><path style="opacity:1" fill="#cdcff8" d="M 148.5,173.5 C 149.931,173.881 150.764,174.881 151,176.5C 151.497,178.81 151.663,181.143 151.5,183.5C 150.007,180.417 149.007,177.083 148.5,173.5 Z"/></g>
<g><path style="opacity:1" fill="#b6c1f7" d="M 188.5,166.5 C 189.709,170.618 190.376,174.951 190.5,179.5C 188.823,175.455 188.156,171.122 188.5,166.5 Z"/></g>
<g><path style="opacity:1" fill="#67c6df" d="M 374.5,163.5 C 375.643,163.908 376.643,164.575 377.5,165.5C 378.194,168.088 379.36,170.421 381,172.5C 382.822,181.302 385.822,189.635 390,197.5C 392.578,188.687 395.078,179.853 397.5,171C 397.684,169.624 398.351,168.791 399.5,168.5C 399.998,172.219 399.164,175.553 397,178.5C 396.39,185.221 394.89,191.721 392.5,198C 392.759,199.261 393.426,200.261 394.5,201C 393.549,201.718 393.383,202.551 394,203.5C 395,203.833 396,204.167 397,204.5C 397.483,205.448 397.649,206.448 397.5,207.5C 397.056,209.113 396.056,210.28 394.5,211C 386.775,212.792 381.442,209.959 378.5,202.5C 378.456,199.435 378.456,196.268 378.5,193C 377.328,192.581 376.328,191.915 375.5,191C 377.497,190.24 379.163,189.74 380.5,189.5C 379.65,187.379 378.65,185.212 377.5,183C 380.028,181.983 380.028,180.816 377.5,179.5C 380.962,174.337 379.628,170.337 373.5,167.5C 374.246,166.264 374.579,164.93 374.5,163.5 Z"/></g>
<g><path style="opacity:1" fill="#6fd8dd" d="M 423.5,181.5 C 424.539,183.901 425.873,186.235 427.5,188.5C 431.352,184.814 435.352,181.314 439.5,178C 443.5,177.333 447.5,177.333 451.5,178C 456.876,180.575 462.542,182.075 468.5,182.5C 468.5,180.833 468.5,179.167 468.5,177.5C 469.461,179.265 469.795,181.265 469.5,183.5C 463.076,183.04 456.743,182.04 450.5,180.5C 448.259,180.881 445.926,181.048 443.5,181C 446.724,182.133 447.057,184.133 444.5,187C 447.092,188.788 449.759,190.288 452.5,191.5C 449.183,190.779 445.849,190.612 442.5,191C 439.167,194.333 435.833,197.667 432.5,201C 428.789,201.825 425.122,201.659 421.5,200.5C 418.663,198.008 416.663,195.008 415.5,191.5C 415.508,188.306 415.842,184.973 416.5,181.5C 419.718,181.349 420.051,180.516 417.5,179C 418.126,178.25 418.626,177.416 419,176.5C 420.368,179.186 421.701,181.853 423,184.5C 423.483,183.552 423.649,182.552 423.5,181.5 Z"/></g>
<g><path style="opacity:1" fill="#c0c6f7" d="M 166.5,163.5 C 165.579,169.81 163.912,175.81 161.5,181.5C 162.421,175.19 164.088,169.19 166.5,163.5 Z"/></g>
<g><path style="opacity:1" fill="#4b89ea" d="M 284.5,171.5 C 284.625,173.601 285.292,175.934 286.5,178.5C 286.443,180.481 285.943,182.481 285,184.5C 285.667,185.167 286.333,185.833 287,186.5C 288.019,185.313 289.186,184.313 290.5,183.5C 291.298,183.957 291.631,184.624 291.5,185.5C 281.903,190.769 272.57,196.436 263.5,202.5C 262.811,201.293 262.645,199.959 263,198.5C 262.086,199.654 261.253,199.487 260.5,198C 263.443,196.541 263.776,194.874 261.5,193C 260.879,190.502 261.545,188.168 263.5,186C 263.272,185.601 262.938,185.435 262.5,185.5C 262.5,185.167 262.5,184.833 262.5,184.5C 269.531,179.651 276.865,175.318 284.5,171.5 Z"/></g>
<g><path style="opacity:1" fill="#715bf3" d="M 82.5,149.5 C 83.0431,149.56 83.3764,149.893 83.5,150.5C 81.5354,152.519 81.3688,154.519 83,156.5C 84.4828,154.054 85.6495,154.388 86.5,157.5C 87.365,158.583 88.365,158.749 89.5,158C 89.6562,155.899 90.4895,153.733 92,151.5C 91.9945,153.917 92.8279,156.251 94.5,158.5C 93.8902,159.391 93.5569,160.391 93.5,161.5C 92.0937,161.973 91.427,162.973 91.5,164.5C 88.8565,170.16 87.8565,176.16 88.5,182.5C 92.8435,181.442 97.1768,180.276 101.5,179C 104.167,178.333 106.833,178.333 109.5,179C 114.284,181.45 118.117,184.95 121,189.5C 123.356,186.121 125.189,182.455 126.5,178.5C 127.871,176.83 129.371,176.164 131,176.5C 131.972,178.305 133.139,179.972 134.5,181.5C 135.167,180.5 135.833,179.5 136.5,178.5C 137.298,178.957 137.631,179.624 137.5,180.5C 135.591,187.727 132.257,194.227 127.5,200C 123.55,201.606 119.55,201.773 115.5,200.5C 112.283,198.445 109.95,195.611 108.5,192C 107.391,191.362 106.225,190.862 105,190.5C 99.9027,191.943 94.7361,193.11 89.5,194C 89.7785,199.778 87.4452,204.112 82.5,207C 76.7442,208.317 73.2442,206.151 72,200.5C 70.9521,188.648 71.7854,176.982 74.5,165.5C 76.0739,163.898 76.7406,161.898 76.5,159.5C 77.7399,156.976 78.9066,154.309 80,151.5C 80.7083,150.619 81.5416,149.953 82.5,149.5 Z"/></g>
<g><path style="opacity:1" fill="#5861f0" d="M 148.5,173.5 C 149.007,177.083 150.007,180.417 151.5,183.5C 152.664,188.269 154.331,192.935 156.5,197.5C 158.578,194.894 159.911,191.894 160.5,188.5C 161.793,187.158 162.626,185.491 163,183.5C 163.407,187.129 162.907,190.629 161.5,194C 163.345,195.423 165.345,196.59 167.5,197.5C 168.246,198.736 168.579,200.07 168.5,201.5C 165.574,209.795 159.908,212.462 151.5,209.5C 145.096,201.478 141.096,192.311 139.5,182C 139.164,180.97 138.497,180.47 137.5,180.5C 137.631,179.624 137.298,178.957 136.5,178.5C 135.833,179.5 135.167,180.5 134.5,181.5C 133.139,179.972 131.972,178.305 131,176.5C 129.371,176.164 127.871,176.83 126.5,178.5C 126.961,176.45 127.628,174.45 128.5,172.5C 130.386,169.021 132.72,165.854 135.5,163C 143.194,162.195 147.528,165.695 148.5,173.5 Z"/></g>
<g><path style="opacity:1" fill="#5cbce1" d="M 374.5,163.5 C 374.579,164.93 374.246,166.264 373.5,167.5C 379.628,170.337 380.962,174.337 377.5,179.5C 380.028,180.816 380.028,181.983 377.5,183C 378.65,185.212 379.65,187.379 380.5,189.5C 379.163,189.74 377.497,190.24 375.5,191C 376.328,191.915 377.328,192.581 378.5,193C 378.456,196.268 378.456,199.435 378.5,202.5C 376.887,199.198 375.221,195.864 373.5,192.5C 370.181,201.649 366.015,210.316 361,218.5C 359.243,224.116 359.077,229.783 360.5,235.5C 359.379,233.046 358.546,230.379 358,227.5C 357.745,233.913 356.578,234.08 354.5,228C 355.973,227.29 356.64,226.124 356.5,224.5C 355.167,224.5 353.833,224.5 352.5,224.5C 351.606,220.424 349.606,219.757 346.5,222.5C 345.22,220.276 345.553,218.276 347.5,216.5C 347.043,215.702 346.376,215.369 345.5,215.5C 349.723,206.721 354.223,198.054 359,189.5C 361.18,181.935 362.846,174.268 364,166.5C 366.594,161.316 370.094,160.316 374.5,163.5 Z"/></g>
<g><path style="opacity:1" fill="#5bb4e2" d="M 345.5,215.5 C 346.376,215.369 347.043,215.702 347.5,216.5C 345.553,218.276 345.22,220.276 346.5,222.5C 349.606,219.757 351.606,220.424 352.5,224.5C 353.833,224.5 355.167,224.5 356.5,224.5C 356.64,226.124 355.973,227.29 354.5,228C 356.578,234.08 357.745,233.913 358,227.5C 358.546,230.379 359.379,233.046 360.5,235.5C 363.385,244.168 364.552,253.168 364,262.5C 361.891,264.801 359.391,266.468 356.5,267.5C 351.392,265.497 346.392,263.497 341.5,261.5C 343.199,261.66 344.866,261.494 346.5,261C 345.5,260.667 344.5,260.333 343.5,260C 345.044,259.71 346.377,259.044 347.5,258C 345.749,254.201 345.082,250.368 345.5,246.5C 346.634,244.034 346.801,241.367 346,238.5C 344.386,233.772 343.219,228.939 342.5,224C 342.311,220.709 343.311,217.876 345.5,215.5 Z"/></g>
<g><path style="opacity:1" fill="#a3b6f4" d="M 235.5,234.5 C 237.967,234.755 239.967,235.755 241.5,237.5C 239.033,237.245 237.033,236.245 235.5,234.5 Z"/></g>
<g><path style="opacity:1" fill="#98b0f4" d="M 246.5,239.5 C 249.152,239.41 251.485,240.076 253.5,241.5C 250.848,241.59 248.515,240.924 246.5,239.5 Z"/></g>
<g><path style="opacity:1" fill="#53a6e4" d="M 345.5,246.5 C 345.082,250.368 345.749,254.201 347.5,258C 346.377,259.044 345.044,259.71 343.5,260C 344.5,260.333 345.5,260.667 346.5,261C 344.866,261.494 343.199,261.66 341.5,261.5C 333.638,259.213 325.971,256.547 318.5,253.5C 319.239,253.631 319.906,253.464 320.5,253C 318.5,252.333 316.5,251.667 314.5,251C 315.466,248.067 315.466,245.401 314.5,243C 312.42,242.211 310.586,241.044 309,239.5C 307.234,240.233 305.401,240.567 303.5,240.5C 309.114,237.787 315.114,236.954 321.5,238C 329.397,241.14 337.397,243.974 345.5,246.5 Z"/></g>
<g><path style="opacity:1" fill="#4782eb" d="M 281.5,245.5 C 286.041,245.331 286.374,245.998 282.5,247.5C 281.844,253.164 284.177,257.164 289.5,259.5C 286.941,259.198 284.607,259.532 282.5,260.5C 276.5,260.5 270.5,260.5 264.5,260.5C 264.5,260.167 264.5,259.833 264.5,259.5C 266.857,259.663 269.19,259.497 271.5,259C 268.5,258.667 265.5,258.333 262.5,258C 262.087,254.649 262.087,250.816 262.5,246.5C 269.022,246.823 275.355,246.49 281.5,245.5 Z"/></g>
<g><path style="opacity:1" fill="#92a8f3" d="M 228.5,249.5 C 230.967,249.755 232.967,250.755 234.5,252.5C 232.033,252.245 230.033,251.245 228.5,249.5 Z"/></g>
<g><path style="opacity:1" fill="#4d93e8" d="M 318.5,253.5 C 311.468,253.96 304.801,255.627 298.5,258.5C 295.455,258.508 292.455,258.841 289.5,259.5C 284.177,257.164 281.844,253.164 282.5,247.5C 286.374,245.998 286.041,245.331 281.5,245.5C 276.821,245.666 272.155,245.499 267.5,245C 266.584,244.722 265.918,244.222 265.5,243.5C 278.394,245.236 291.061,244.236 303.5,240.5C 305.401,240.567 307.234,240.233 309,239.5C 310.586,241.044 312.42,242.211 314.5,243C 315.466,245.401 315.466,248.067 314.5,251C 316.5,251.667 318.5,252.333 320.5,253C 319.906,253.464 319.239,253.631 318.5,253.5 Z"/></g>
<g><path style="opacity:1" fill="#487aed" d="M 241.5,237.5 C 243.284,237.893 244.95,238.559 246.5,239.5C 248.515,240.924 250.848,241.59 253.5,241.5C 257.394,242.593 261.394,243.26 265.5,243.5C 265.918,244.222 266.584,244.722 267.5,245C 272.155,245.499 276.821,245.666 281.5,245.5C 275.355,246.49 269.022,246.823 262.5,246.5C 262.087,250.816 262.087,254.649 262.5,258C 265.5,258.333 268.5,258.667 271.5,259C 269.19,259.497 266.857,259.663 264.5,259.5C 260.821,259.276 257.154,258.942 253.5,258.5C 247.823,257.606 242.49,255.939 237.5,253.5C 238.552,253.649 239.552,253.483 240.5,253C 238.833,252 237.167,251 235.5,250C 236.833,249.333 236.833,248.667 235.5,248C 238.825,246.386 239.158,244.386 236.5,242C 238.063,240.264 239.73,238.764 241.5,237.5 Z"/></g>
<g><path style="opacity:1" fill="#c6d3f7" d="M 253.5,258.5 C 257.154,258.942 260.821,259.276 264.5,259.5C 264.5,259.833 264.5,260.167 264.5,260.5C 260.351,261.08 256.684,260.414 253.5,258.5 Z"/></g>
<g><path style="opacity:1" fill="#bfd4f6" d="M 298.5,258.5 C 298.389,259.117 298.056,259.617 297.5,260C 292.511,260.499 287.511,260.666 282.5,260.5C 284.607,259.532 286.941,259.198 289.5,259.5C 292.455,258.841 295.455,258.508 298.5,258.5 Z"/></g>
<g><path style="opacity:1" fill="#353e52" d="M 216.5,292.5 C 226.588,292.243 230.922,296.91 229.5,306.5C 228.398,308.889 226.731,310.723 224.5,312C 211.884,314.381 207.051,309.214 210,296.5C 211.792,294.372 213.958,293.039 216.5,292.5 Z"/></g>
<g><path style="opacity:1" fill="#343e52" d="M 105.5,363.5 C 105.008,367.29 105.841,367.956 108,365.5C 108.813,363.564 109.313,361.564 109.5,359.5C 114.331,340.511 118.997,321.511 123.5,302.5C 124.715,299.671 126.381,297.171 128.5,295C 133.167,294.333 137.833,294.333 142.5,295C 144.617,296.731 146.117,298.898 147,301.5C 152.026,323.619 157.693,345.619 164,367.5C 168.671,346.813 173.671,326.146 179,305.5C 180.333,302.167 181.667,298.833 183,295.5C 187.413,294.368 191.913,294.201 196.5,295C 198.736,295.734 200.069,297.234 200.5,299.5C 197.723,312.365 194.39,325.031 190.5,337.5C 188.986,342.339 187.653,347.339 186.5,352.5C 183.299,365.293 179.465,377.96 175,390.5C 168.248,391.645 161.414,391.811 154.5,391C 153.263,388.463 151.93,385.963 150.5,383.5C 146.435,363.904 141.435,344.571 135.5,325.5C 129.678,346.13 124.178,366.797 119,387.5C 117.978,388.354 117.145,389.354 116.5,390.5C 109.524,391.664 102.524,391.831 95.5,391C 93.5754,385.881 91.742,380.714 90,375.5C 83.7051,350.883 77.3718,326.216 71,301.5C 70.1041,298.975 70.6041,296.808 72.5,295C 77.1667,294.333 81.8333,294.333 86.5,295C 88.6188,297.171 90.2855,299.671 91.5,302.5C 95.8989,322.817 100.566,343.15 105.5,363.5 Z"/></g>
<g><path style="opacity:1" fill="#323c50" d="M 317.5,297.5 C 317.168,307.855 317.501,318.188 318.5,328.5C 319.919,327.995 320.585,326.995 320.5,325.5C 323.719,322.179 327.719,320.346 332.5,320C 347.184,317.551 357.518,323.051 363.5,336.5C 364.446,354.472 364.779,372.472 364.5,390.5C 359.584,391.611 354.584,391.778 349.5,391C 349,390.5 348.5,390 348,389.5C 347.936,374.113 347.269,358.78 346,343.5C 341.096,335.602 334.263,333.435 325.5,337C 323.667,338.833 321.833,340.667 320,342.5C 318.729,358.113 318.063,373.78 318,389.5C 317.5,390 317,390.5 316.5,391C 311.249,391.804 306.082,391.637 301,390.5C 300.333,359.167 300.333,327.833 301,296.5C 301.5,296 302,295.5 302.5,295C 306.5,294.333 310.5,294.333 314.5,295C 315.942,295.377 316.942,296.21 317.5,297.5 Z"/></g>
<g><path style="opacity:1" fill="#363f53" d="M 423.5,295.5 C 424.156,316.265 424.822,336.931 425.5,357.5C 428.527,372.339 437.527,378.172 452.5,375C 460.908,372.595 465.741,367.095 467,358.5C 467.333,337.833 467.667,317.167 468,296.5C 470.587,294.986 473.42,294.32 476.5,294.5C 479.58,294.32 482.413,294.986 485,296.5C 485.667,318.167 485.667,339.833 485,361.5C 480.721,383.289 467.554,393.622 445.5,392.5C 425.882,393.437 413.382,384.437 408,365.5C 406.398,342.87 406.065,320.203 407,297.5C 407.5,296.333 408.333,295.5 409.5,295C 414.252,294.227 418.919,294.393 423.5,295.5 Z"/></g>
<g><path style="opacity:1" fill="#717684" d="M 317.5,297.5 C 318.33,306.991 318.83,316.658 319,326.5C 319.383,325.944 319.883,325.611 320.5,325.5C 320.585,326.995 319.919,327.995 318.5,328.5C 317.501,318.188 317.168,307.855 317.5,297.5 Z"/></g>
<g><path style="opacity:1" fill="#333d51" d="M 250.5,373.5 C 250.5,361.167 250.5,348.833 250.5,336.5C 247.061,336.747 243.728,336.414 240.5,335.5C 239.353,331.354 239.186,327.02 240,322.5C 243.394,321.544 246.894,321.211 250.5,321.5C 250.334,315.491 250.501,309.491 251,303.5C 253.383,302.234 256.05,301.568 259,301.5C 261.5,301.667 264,301.833 266.5,302C 267,302.5 267.5,303 268,303.5C 268.499,309.491 268.666,315.491 268.5,321.5C 274.176,321.334 279.843,321.501 285.5,322C 288.038,326.573 288.038,331.24 285.5,336C 279.843,336.499 274.176,336.666 268.5,336.5C 268.333,348.505 268.5,360.505 269,372.5C 269.465,373.931 270.299,375.097 271.5,376C 276.167,376.333 280.833,376.667 285.5,377C 286,377.5 286.5,378 287,378.5C 287.996,383.229 287.496,387.729 285.5,392C 277.452,392.775 269.452,392.442 261.5,391C 255.202,386.859 251.535,381.026 250.5,373.5 Z"/></g>
<g><path style="opacity:1" fill="#384154" d="M 212.5,321.5 C 217.179,321.334 221.845,321.501 226.5,322C 227,322.5 227.5,323 228,323.5C 228.167,334.667 228.333,345.833 228.5,357C 228.489,368.559 227.822,379.892 226.5,391C 221.833,391.667 217.167,391.667 212.5,391C 212,390.5 211.5,390 211,389.5C 210.333,367.5 210.333,345.5 211,323.5C 211.717,322.956 212.217,322.289 212.5,321.5 Z"/></g>
<g><path style="opacity:1" fill="#5b5f6c" d="M 423.5,295.5 C 425.488,315.806 426.155,336.473 425.5,357.5C 424.822,336.931 424.156,316.265 423.5,295.5 Z"/></g>
<g><path style="opacity:1" fill="#b8b9bf" d="M 190.5,337.5 C 190.048,341.163 189.548,344.83 189,348.5C 188.8,350.32 187.966,351.653 186.5,352.5C 187.653,347.339 188.986,342.339 190.5,337.5 Z"/></g>
<g><path style="opacity:1" fill="#bcbec4" d="M 240.5,335.5 C 243.728,336.414 247.061,336.747 250.5,336.5C 250.5,348.833 250.5,361.167 250.5,373.5C 249.505,361.678 249.172,349.678 249.5,337.5C 245.988,338.055 242.988,337.388 240.5,335.5 Z"/></g>
<g><path style="opacity:1" fill="#999da6" d="M 109.5,359.5 C 109.313,361.564 108.813,363.564 108,365.5C 105.841,367.956 105.008,367.29 105.5,363.5C 106.117,363.611 106.617,363.944 107,364.5C 107.374,362.509 108.207,360.842 109.5,359.5 Z"/></g>
<g><path style="opacity:1" fill="#8b8d95" d="M 363.5,336.5 C 364.222,336.918 364.722,337.584 365,338.5C 365.829,356.005 365.662,373.338 364.5,390.5C 364.779,372.472 364.446,354.472 363.5,336.5 Z"/></g>
</svg>
